<svg xmlns="http://www.w3.org/2000/svg" xmlns:xlink="http://www.w3.org/1999/xlink">

  <symbol viewBox="0 0 24 24" id="logo-telegram">
    <path d="m22.44 4.62-3.17 14.95c-.24 1.05-.86 1.31-1.75.82l-4.83-3.56-2.33 2.24c-.25.26-.47.47-.97.47l.35-4.91 8.95-8.09c.39-.35-.09-.54-.6-.2L7.01 13.32l-4.76-1.49c-1.04-.32-1.05-1.03.22-1.53L21.1 3.11c.87-.32 1.62.2 1.34 1.51Z"/>
  </symbol>

  <symbol viewBox="0 0 24 24" id="logo-vk" >
  <g clip-path="url(#a)">
    <path fill-rule="evenodd" clip-rule="evenodd" d="M23.45 5.95c.17-.55 0-.95-.8-.95h-2.62c-.67 0-.98.35-1.14.73 0 0-1.34 3.2-3.23 5.27-.61.6-.89.8-1.22.8-.17 0-.42-.2-.42-.74V5.95c0-.66-.18-.95-.74-.95H9.15c-.42 0-.67.3-.67.6 0 .61.95.76 1.05 2.5v3.8c0 .84-.16.99-.5.99-.88 0-3.05-3.21-4.33-6.89-.25-.71-.5-1-1.17-1H.9c-.75 0-.9.35-.9.73 0 .68.89 4.07 4.14 8.55C6.32 17.34 9.38 19 12.15 19c1.67 0 1.88-.37 1.88-1v-2.32c0-.73.16-.88.69-.88.38 0 1.05.2 2.61 1.67C19.11 18.22 19.4 19 20.41 19h2.62c.75 0 1.13-.37.91-1.1-.24-.72-1.09-1.77-2.21-3.02-.62-.7-1.54-1.47-1.81-1.86-.4-.49-.28-.7 0-1.14 0 0 3.2-4.43 3.53-5.93Z" fill="#fff"/>
  </g>
  <defs>
    <clipPath id="a">
      <path fill="#fff" d="M0 0h24v24H0z"/>
    </clipPath>
  </defs>
</symbol>

<symbol viewBox="0 0 24 24" id="logo-youtube">
  <path d="M19.18 5H4.81C3.31 5 2 6.3 2 7.8v8.3C2 17.7 3.3 19 4.81 19h14.37A2.8 2.8 0 0 0 22 16.2V7.8c.1-1.5-1.2-2.8-2.8-2.8ZM9.03 15.4V8.6l6.84 3.4-6.84 3.4Z"/>
</symbol>

<symbol id="htmlacademy">
  <path d="M16.13 2h-.09L4 3.2v21L16.04 31 28 24.2v-21L16.13 2ZM26.3 12.29 16.04 6.51v-.09h-.08l-.1-.08v.08L5.7 12.3V4.64l10.26-1.02L26.3 4.64v7.65Zm-10.34-4.5 10.26 5.7-4.02 2.2-6.33-3.57v1.2l5.26 2.97-.8.42-4.46-2.55v1.2l3.39 1.95-.72.42-2.67-1.53v1.2l1.7.93-1.61.93-10.18-5.7 10.18-5.78ZM5.7 14.83l10.17 5.78v.86l-7.05-4v1.19l7.14 4.08v.94l-7.14-4v1.19l7.14 4.08 7.22-4.17v-4.42l3.04-1.7v8.5l-10.26 5.87L5.7 23.26v-8.42Z" fill="currentColor"/>
</symbol>

<symbol id="like">
  <path  d="m12.96 3.78-.62 3.05-.63 2.62h9.09v2.2l-3.03 7.25h-9.4V8.4l4.6-4.62ZM13.8 0 6.9 6.93c-.42.32-.63.84-.63 1.47v10.5c0 1.16.94 2.1 2.1 2.1h9.4c.84 0 1.57-.52 1.88-1.26l3.14-7.45c.1-.21.1-.53.1-.74v-2.1H23a2.1 2.1 0 0 0-2.1-2.1h-6.58l1.05-4.83v-.31c0-.43-.21-.84-.42-1.16L13.8 0ZM4.18 8.4H0V21h4.18V8.4Z" />
</symbol>

<symbol id="icon-mail" viewBox="0 0 18 18">
  <path d="M9 11c-.3 0-.5-.1-1-.3L1 7v7c0 .5.5 1 1 1h14c.5 0 1-.5 1-1V7l-7 3.7c-.5.2-.7.3-1 .3Zm7-8H2c-.5 0-1 .5-1 1v.8L9 9l8-4.2V4c0-.5-.5-1-1-1Z"/>
</symbol>

<symbol id="icon-phone" viewBox="0 0 18 18">
  <path d="M3.6 7.8c1.4 2.8 3.8 5.1 6.6 6.6l2.2-2.2c.3-.3.7-.4 1-.2 1.1.4 2.3.6 3.6.6.6 0 1 .4 1 1V17c0 .6-.4 1-1 1C7.6 18 0 10.4 0 1c0-.6.4-1 1-1h3.5c.6 0 1 .4 1 1 0 1.2.2 2.4.6 3.6.1.3 0 .7-.2 1L3.6 7.8Z"/>
</symbol>


<symbol id="icon-house">
  <path d="M15.4 35.22h8.35V23.06H15.4v12.16Zm6.84-1.48h-5.32v-9.2h5.27v9.2h.05Z"/>
  <path d="m37.9 22.04 1.1-1.07-5.17-5.03V2.2h-7.2v6.72L19.47 2 0 21.03l1.1 1.06 4.07-3.96v19.23H3.13v1.47H36.5v-1.47h-2.66V18.08l4.07 3.96ZM28.14 3.73h4.13v10.73l-4.13-4.02V3.73Zm4.18 33.57H6.73V16.6L19.47 4.14l12.8 12.46v20.7h.05Z"/>
  <path d="M15.56 15.84a4.01 4.01 0 0 0 4.02 3.96 4.03 4.03 0 0 0 4.07-3.96 3.98 3.98 0 0 0-4.07-3.92 3.94 3.94 0 0 0-4.02 3.92Zm4.02-2.55a2.59 2.59 0 0 1 2.6 2.55 2.58 2.58 0 0 1-2.6 2.54 2.59 2.59 0 0 1-2.61-2.54c0-1.38 1.2-2.55 2.6-2.55ZM10.39 23.06H8.82v1.99h1.57v-1.99ZM13.47 23.06H11.9v1.99h1.57v-1.99ZM10.39 26.11H8.82v1.99h1.57V26.1ZM13.47 26.11H11.9v1.99h1.57V26.1ZM27.04 23.06h-1.56v1.99h1.56v-1.99ZM30.18 23.06H28.6v1.99h1.57v-1.99ZM27.04 26.11h-1.56v1.99h1.56V26.1ZM30.18 26.11H28.6v1.99h1.57V26.1Z"/>
</symbol>

<symbol id="icon-burger">
  <path d="M37.74 26.3H2.26A2.23 2.23 0 0 0 0 28.48v1.77c0 1.17 1 2.13 2.26 2.13h.52v.5a5.12 5.12 0 0 0 5.2 5.02h24.04c2.89 0 5.2-2.28 5.2-5.01v-.51h.52c1.21 0 2.26-.96 2.26-2.18v-1.77c0-1.12-1-2.13-2.26-2.13Zm-2.04 6.59c0 1.92-1.63 3.49-3.63 3.49H7.93c-2 0-3.63-1.57-3.63-3.5v-.5h31.4v.5Zm2.73-2.69c0 .36-.32.66-.69.66H2.26a.68.68 0 0 1-.69-.66v-1.77c0-.3.32-.61.69-.61H37.8c.36 0 .68.3.68.66v1.72h-.05ZM8.5 22.2l2.84 2.02 2.89-2.02 2.88 2.02L20 22.2l2.83 2.02 2.9-2.02 2.88 2.02 2.89-2.02 2.88 2.02 3.31-2.38-.9-1.21-2.4 1.67-2.9-2.03-2.88 2.03-2.89-2.03-2.89 2.03L20 20.27l-2.89 2.03-2.88-2.03-2.9 2.03-2.83-2.03-2.88 2.03-2.42-1.67-.94 1.21 3.36 2.38L8.5 22.2ZM37.22 18.75c0-.3.05-1.31 0-1.52C36.85 9.33 29.29 3 20 3 10.7 3 3.1 9.33 2.73 17.23v1.52h34.49ZM20 4.52c8.4 0 15.33 5.67 15.64 12.71H4.3C4.67 10.2 11.6 4.52 20 4.52Z"/>
  <path d="M20 11.61c.58 0 1.05-.45 1.05-1.01S20.58 9.58 20 9.58c-.58 0-1.05.46-1.05 1.02s.47 1.01 1.05 1.01ZM15.8 9.13c.58 0 1.05-.45 1.05-1.01S16.38 7.1 15.8 7.1c-.58 0-1.05.46-1.05 1.02s.47 1 1.05 1ZM24.2 9.13c.58 0 1.05-.45 1.05-1.01S24.78 7.1 24.2 7.1c-.58 0-1.05.46-1.05 1.02s.47 1 1.05 1Z"/>
</symbol>

<symbol id="icon-gift">
  <path d="M34.58 12.2h-12.4c6.91-3.44 7.47-5.62 7.22-6.83-.56-1.98-2.85-3.5-4.98-2.69-2.8 1.07-3.56 5.22-4.32 8.2-.96-3.03-1.88-6.88-4.06-8.85A3.7 3.7 0 0 0 13.14 1c-2.03.2-4.92 2.69-3.7 5.47 1.11 2.69 4.82 4.4 7.3 5.78H5.43c-.81 0-1.42.65-1.42 1.41v5.68c0 .8.66 1.42 1.42 1.42h.15V39h28.96V20.77h.05c.81 0 1.42-.66 1.42-1.42v-5.68c0-.8-.66-1.46-1.42-1.46Zm-9.35-8.25c1.07-.15 2.5.66 2.64 1.62.2 1.37-1.67 2.63-2.54 3.2-1.27.85-2.49 1.3-3.65 2.02.4-1.88 1.27-6.54 3.55-6.84ZM13.75 8.91c-1.12-.76-3.25-2.23-3.2-3.9.05-1.82 2.9-3.29 4.42-1.92 1.93 1.67 2.85 5.57 3.56 8.3-1.63-.8-3.15-1.41-4.78-2.48Zm3 28.57h-9.7V20.77h9.7v16.71Zm0-18.23H5.52v-5.52h11.23v5.52Zm5.08 18.23h-3.6V13.73h3.6v23.75Zm11.17 0h-9.65V20.77h9.7v16.71H33Zm1.48-18.23H23.35v-5.52h11.13v5.52Z"/>

</symbol>

</svg>


