<svg width="32" height="32" viewBox="0 0 32 32" xmlns="http://www.w3.org/2000/svg">
  <path d="M16.13 2h-.09L4 3.2v21L16.04 31 28 24.2v-21L16.13 2ZM26.3 12.29 16.04 6.51v-.09h-.08l-.1-.08v.08L5.7 12.3V4.64l10.26-1.02L26.3 4.64v7.65Zm-10.34-4.5 10.26 5.7-4.02 2.2-6.33-3.57v1.2l5.26 2.97-.8.42-4.46-2.55v1.2l3.39 1.95-.72.42-2.67-1.53v1.2l1.7.93-1.61.93-10.18-5.7 10.18-5.78ZM5.7 14.83l10.17 5.78v.86l-7.05-4v1.19l7.14 4.08v.94l-7.14-4v1.19l7.14 4.08 7.22-4.17v-4.42l3.04-1.7v8.5l-10.26 5.87L5.7 23.26v-8.42Z" fill="currentColor"/>
</svg>
